<?xml version="1.0" standalone="yes"?><!DOCTYPE svg PUBLIC "-//W3C//DTD SVG 1.1//EN" "http://www.w3.org/Graphics/SVG/1.1/DTD/svg11.dtd"><svg width="640px" height="640px" xmlns="http://www.w3.org/2000/svg" version="1.1"><path d="M-116,-201 L-113,-220L-82,-249L-104,-194L-94,-176L-63,-179L-75,-155L-68,-133L-42,-135L-54,-108L-40,-89L-19,-87L-26,-66L-10,-42L-10,-69L-12,-97L-31,-106L-26,-132L-43,-150L-17,-167L-37,-182L-12,-195L-34,-209L-11,-219L-31,-233L-13,-240L-30,-263L0,-245L0,-245L30,-263L13,-240L31,-233L11,-219L34,-209L12,-195L37,-182L17,-167L43,-150L26,-132L31,-106L12,-97L10,-69L10,-42L26,-66L19,-87L40,-89L54,-108L42,-135L68,-133L75,-155L63,-179L94,-176L104,-194L82,-249L113,-220L116,-201L116.07110616067213,-200.9589468389949L134.0255888325765,-207.8608706276416L174.6403255423252,-195.514083110324L116.00892833418108,-187.06664199358164L105.4204710660612,-169.40638795573724L123.51854727741451,-144.05960043841964L96.73393758658798,-142.4519052838329L81.18137870333032,-125.38972745734185L95.9134295108992,-103.87306695894644L66.53074360871935,-100.76537180435969L57.07626093681503,-79.14101615137756L65.84421012924616,-59.954482671904344L44.15767664977294,-55.51666049839541L31.373066958946424,-29.66025403784439L54.75575286112626,-43.160254037844396L78.00446416709055,-58.89230484541328L76.2986928011505,-79.84678751731761L101.31535329954589,-88.51666049839542L108.4038105676658,-112.23909236273087L136.12624243200125,-98.22243186433548L139.11662348876783,-123.04293994002424L162.8749537379655,-107.89230484541329L163.99930939094767,-133.94486372867095L184.15956342879204,-119.02627944162886L186.2839190817742,-143.34678751731764L201.34609690826525,-131.25833024919774L212.76468119530736,-157.4807621135332L212.17622392718746,-122.50000000000003L212.17622392718746,-122.50000000000003L242.76468119530736,-105.51923788646687L214.34609690826525,-108.74166975080233L217.2839190817742,-89.65321248268243L195.15956342879204,-99.9737205583712L197.99930939094767,-75.05513627132912L174.8749537379655,-87.10769515458676L176.11662348876783,-58.95706005997579L153.12624243200125,-68.77756813566455L151.4038105676658,-37.760907637269156L127.31535329954589,-43.48333950160461L107.2986928011505,-26.153212482682417L90.00446416709055,-38.10769515458675L64.75575286112627,-25.83974596215562L41.373066958946424,-12.339745962155618L70.15767664977295,-10.483339501604604L84.84421012924616,-27.045517328095674L97.07626093681503,-9.858983848622465L120.53074360871938,-7.234628195640333L137.91342951089922,-31.12693304105359L149.18137870333035,-7.610272542658187L171.73393758658798,-12.548094716167114L186.5185472774145,-34.940399561580385L199.4204710660612,-6.593612044262784L220.00892833418112,-6.933358006418416L256.64032554232523,-53.48591688967606L247.0255888325765,-12.139129372358468L232.07110616067217,-0.041053161005152106L232.07110616067217,0.04105316100505263L247.02558883257652,12.139129372358369L256.64032554232523,53.48591688967596L220.0089283341811,6.933358006418317L199.4204710660612,6.593612044262713L186.51854727741454,34.940399561580314L171.733937586588,12.548094716167057L149.18137870333035,7.61027254265813L137.91342951089922,31.12693304105354L120.53074360871938,7.234628195640283L97.07626093681506,9.858983848622422L84.84421012924618,27.04551732809564L70.15767664977295,10.483339501604576L41.37306695894643,12.3397459621556L64.75575286112627,25.839745962155597L90.00446416709056,38.107695154586715L107.29869280115051,26.153212482682374L127.31535329954592,43.48333950160456L151.40381056766583,37.7609076372691L153.12624243200128,68.7775681356645L176.11662348876786,58.957060059975724L174.87495373796557,87.1076951545867L197.9993093909477,75.05513627132903L195.1595634287921,99.97372055837113L217.28391908177426,89.65321248268233L214.3460969082653,108.74166975080223L242.76468119530742,105.51923788646678L212.17622392718752,122.49999999999994L212.17622392718752,122.49999999999994L212.76468119530742,157.4807621135331L201.3460969082653,131.25833024919766L186.28391908177426,143.34678751731755L184.1595634287921,119.02627944162879L163.9993093909477,133.94486372867087L162.87495373796557,107.89230484541322L139.11662348876786,123.04293994002418L136.12624243200128,98.22243186433542L108.40381056766584,112.23909236273084L101.31535329954592,88.51666049839538L76.29869280115051,79.84678751731758L78.00446416709056,58.89230484541324L54.755752861126275,43.160254037844375L31.37306695894643,29.66025403784438L44.15767664977297,55.516660498395396L65.84421012924618,59.954482671904316L57.07626093681507,79.14101615137753L66.5307436087194,100.76537180435967L95.91342951089925,103.8730669589464L81.18137870333038,125.38972745734182L96.73393758658803,142.4519052838329L123.51854727741456,144.0596004384196L105.42047106606125,169.40638795573722L116.00892833418115,187.06664199358158L174.6403255423253,195.51408311032392L134.02558883257657,207.86087062764153L116.07110616067223,200.95894683899485L116.00000000000003,201L113.00000000000003,220L82.00000000000003,249L104.00000000000003,194L94.00000000000003,176L63.00000000000002,179L75.00000000000001,155L68.00000000000001,133L42.000000000000014,135L54.000000000000014,108L40.000000000000014,89L19.00000000000001,87L26.000000000000007,66L10.000000000000005,42L10.000000000000009,69L12.000000000000012,97L31.000000000000014,106L26.000000000000018,132L43.00000000000002,150L17.00000000000002,167L37.00000000000002,182L12.000000000000023,195L34.00000000000003,209L11.000000000000027,219L31.00000000000003,233L13.00000000000003,240L30.000000000000032,263L3.0003846579110155e-14,245L3.0003846579110155e-14,245L-29.999999999999968,263L-12.99999999999997,240L-30.99999999999997,233L-10.999999999999973,219L-33.99999999999997,209L-11.999999999999977,195L-36.99999999999998,182L-16.99999999999998,167L-42.99999999999998,150L-25.999999999999982,132L-30.999999999999986,106L-11.999999999999988,97L-9.999999999999991,69L-9.999999999999995,42L-25.999999999999993,66L-18.99999999999999,87L-39.999999999999986,89L-53.999999999999986,108L-41.999999999999986,135L-67.99999999999999,133L-74.99999999999999,155L-62.99999999999998,179L-93.99999999999997,176L-103.99999999999997,194L-81.99999999999997,249L-112.99999999999997,220L-115.99999999999997,201L-116.07110616067206,200.95894683899493L-134.02558883257637,207.86087062764165L-174.64032554232512,195.51408311032407L-116.008928334181,187.06664199358167L-105.42047106606113,169.40638795573727L-123.51854727741443,144.0596004384197L-96.73393758658793,142.45190528383296L-81.18137870333028,125.38972745734186L-95.91342951089916,103.87306695894647L-66.53074360871932,100.76537180435972L-57.076260936815004,79.14101615137758L-65.84421012924612,59.954482671904366L-44.157676649772924,55.516660498395424L-31.373066958946406,29.660254037844403L-54.75575286112624,43.16025403784441L-78.00446416709052,58.89230484541331L-76.29869280115045,79.84678751731764L-101.31535329954585,88.51666049839545L-108.40381056766573,112.23909236273093L-136.12624243200122,98.22243186433552L-139.11662348876774,123.0429399400243L-162.87495373796548,107.89230484541335L-163.9993093909476,133.944863728671L-184.159563428792,119.02627944162893L-186.28391908177412,143.3467875173177L-201.34609690826522,131.2583302491978L-212.76468119530728,157.48076211353327L-212.1762239271874,122.50000000000011L-212.1762239271874,122.50000000000011L-242.76468119530733,105.51923788646695L-214.34609690826522,108.74166975080242L-217.28391908177417,89.6532124826825L-195.159563428792,99.97372055837127L-197.99930939094764,75.05513627132919L-174.87495373796548,87.10769515458682L-176.1166234887678,58.957060059975866L-153.12624243200122,68.77756813566462L-151.40381056766577,37.76090763726922L-127.31535329954588,43.48333950160466L-107.29869280115048,26.15321248268246L-90.00446416709052,38.10769515458678L-64.75575286112625,25.839745962155646L-41.37306695894642,12.339745962155634L-70.15767664977294,10.483339501604632L-84.84421012924615,27.045517328095706L-97.07626093681503,9.858983848622508L-120.53074360871938,7.234628195640376L-137.9134295108992,31.126933041053647L-149.18137870333032,7.610272542658251L-171.73393758658798,12.5480947161672L-186.51854727741448,34.94039956158047L-199.42047106606122,6.593612044262883L-220.00892833418106,6.933358006418501L-256.6403255423252,53.48591688967616L-247.0255888325765,12.139129372358568L-232.07110616067217,0.04105316100523737L-232.07110616067214,-0.041053161005123684L-247.0255888325765,-12.13912937235844L-256.6403255423252,-53.485916889676034L-220.0089283341811,-6.933358006418388L-199.4204710660612,-6.59361204426277L-186.5185472774145,-34.94039956158037L-171.73393758658798,-12.5480947161671L-149.18137870333032,-7.610272542658173L-137.91342951089922,-31.126933041053576L-120.53074360871936,-7.234628195640319L-97.07626093681503,-9.858983848622458L-84.84421012924616,-27.045517328095666L-70.15767664977295,-10.483339501604597L-41.373066958946424,-12.339745962155614L-64.75575286112627,-25.839745962155614L-90.00446416709055,-38.107695154586736L-107.2986928011505,-26.153212482682402L-127.31535329954589,-43.4833395016046L-151.4038105676658,-37.76090763726914L-153.12624243200125,-68.77756813566454L-176.11662348876783,-58.957060059975774L-174.8749537379655,-87.10769515458674L-197.99930939094767,-75.05513627132909L-195.15956342879204,-99.97372055837117L-217.2839190817742,-89.6532124826824L-214.34609690826525,-108.7416697508023L-242.76468119530736,-105.51923788646684L-212.17622392718746,-122.5L-212.17622392718746,-122.5L-212.76468119530736,-157.48076211353316L-201.34609690826525,-131.2583302491977L-186.2839190817742,-143.3467875173176L-184.15956342879204,-119.02627944162883L-163.99930939094767,-133.94486372867092L-162.8749537379655,-107.89230484541326L-139.11662348876783,-123.04293994002423L-136.12624243200125,-98.22243186433546L-108.4038105676658,-112.23909236273086L-101.31535329954589,-88.5166604983954L-76.2986928011505,-79.8467875173176L-78.00446416709055,-58.892304845413264L-54.75575286112626,-43.16025403784438L-31.373066958946424,-29.660254037844386L-44.157676649772945,-55.5166604983954L-65.84421012924616,-59.95448267190433L-57.07626093681503,-79.14101615137754L-66.53074360871936,-100.76537180435969L-95.9134295108992,-103.87306695894642L-81.18137870333034,-125.38972745734182L-96.73393758658798,-142.4519052838329L-123.51854727741451,-144.05960043841964L-105.4204710660612,-169.40638795573722L-116.00892833418109,-187.0666419935816L-174.6403255423252,-195.51408311032395L-134.0255888325765,-207.86087062764156L-116.07110616067214,-200.95894683899488L-116,-201Z" stroke="#000" fill="#000" transform="translate(320,320)" /></svg>