<?xml version="1.0" standalone="yes"?><!DOCTYPE svg PUBLIC "-//W3C//DTD SVG 1.1//EN" "http://www.w3.org/Graphics/SVG/1.1/DTD/svg11.dtd"><svg width="640px" height="640px" xmlns="http://www.w3.org/2000/svg" version="1.1"><path d="M-176,-306 L-86,-306L-130,-253L-87,-263L-107,-223L-61,-228L-85,-186L-35,-197L-57,-148L-20,-151L-32,-116L-22,-74L0,-37L0,-37L22,-74L32,-116L20,-151L57,-148L35,-197L85,-186L61,-228L107,-223L87,-263L130,-253L86,-306L176,-306L177.00377355803823,-305.4204710660612L222.00377355803823,-227.47818472546174L154.10442715746296,-239.08330249197707L184.26468119530736,-206.8442101292462L139.6236650439298,-204.16471820493496L166.953792062852,-166.8275496308508L118.58072510390559,-166.6121593216773L153.1070045455344,-128.81088913245537L99.6717597600969,-123.363448015713L120.76983597145022,-92.82050807568879L84.45894683899488,-85.71281292110206L53.08587988004845,-56.05255888325766L32.042939940024226,-18.500000000000004L32.042939940024226,-18.500000000000004L75.08587988004845,-17.947441116742358L116.45894683899488,-30.28718707889798L140.76983597145022,-58.17949192431124L156.6717597600969,-24.636551984287017L188.1070045455344,-68.18911086754468L203.5807251039056,-19.387840678322732L227.953792062852,-61.172450369149274L246.6236650439298,-18.8352817950651L271.2646811953074,-56.155789870753864L284.10442715746296,-13.916697508023006L308.00377355803823,-78.52181527453831L353.00377355803823,-0.5795289339388319L353.00377355803823,0.5795289339387182L308.0037735580383,78.5218152745382L284.10442715746296,13.916697508022892L271.2646811953074,56.155789870753765L246.62366504392983,18.835281795065L227.95379206285202,61.172450369149175L203.5807251039056,19.38784067832266L188.10700454553444,68.1891108675446L156.6717597600969,24.63655198428696L140.76983597145025,58.17949192431119L116.4589468389949,30.28718707889793L75.08587988004847,17.947441116742333L32.04293994002423,18.499999999999993L32.04293994002423,18.499999999999993L53.08587988004847,56.05255888325764L84.4589468389949,85.71281292110201L120.76983597145025,92.82050807568875L99.67175976009695,123.36344801571298L153.10700454553444,128.81088913245532L118.58072510390565,166.61215932167727L166.95379206285207,166.8275496308507L139.6236650439299,204.1647182049349L184.26468119530745,206.8442101292461L154.10442715746305,239.083302491977L222.00377355803832,227.4781847254617L177.00377355803835,305.42047106606117L176.00000000000003,306L86.00000000000004,306L130.00000000000003,252.99999999999997L87.00000000000003,263L107.00000000000003,223L61.00000000000003,228L85.00000000000003,186L35.00000000000002,197L57.00000000000002,148L20.000000000000018,151L32.000000000000014,116L22.00000000000001,74L4.531193156845207e-15,37L4.531193156845207e-15,37L-21.99999999999999,74L-31.999999999999986,116L-19.999999999999982,151L-56.99999999999998,148L-34.99999999999998,197L-84.99999999999997,186L-60.99999999999997,228L-106.99999999999997,223L-86.99999999999997,263L-129.99999999999997,253.00000000000003L-85.99999999999996,306L-175.99999999999997,306L-177.00377355803803,305.4204710660613L-222.0037735580381,227.47818472546186L-154.10442715746285,239.08330249197712L-184.26468119530728,206.84421012924625L-139.6236650439297,204.164718204935L-166.95379206285193,166.82754963085085L-118.58072510390551,166.61215932167735L-153.10700454553432,128.81088913245543L-99.67175976009685,123.36344801571306L-120.76983597145018,92.82050807568883L-84.45894683899483,85.71281292110208L-53.085879880048424,56.05255888325768L-32.04293994002422,18.500000000000018L-32.04293994002422,18.500000000000018L-75.08587988004845,17.94744111674239L-116.45894683899486,30.28718707889802L-140.7698359714502,58.17949192431131L-156.6717597600969,24.63655198428708L-188.10700454553438,68.18911086754474L-203.58072510390556,19.387840678322817L-227.953792062852,61.17245036914936L-246.6236650439298,18.8352817950652L-271.26468119530733,56.15578987075398L-284.10442715746296,13.91669750802312L-308.0037735580382,78.52181527453844L-353.00377355803823,0.579528933938974L-353.00377355803823,-0.5795289339388034L-308.00377355803823,-78.52181527453828L-284.10442715746296,-13.916697508022978L-271.2646811953074,-56.155789870753836L-246.6236650439298,-18.83528179506507L-227.953792062852,-61.172450369149246L-203.5807251039056,-19.387840678322718L-188.1070045455344,-68.18911086754466L-156.6717597600969,-24.636551984287003L-140.76983597145022,-58.17949192431123L-116.45894683899488,-30.287187078897965L-75.08587988004845,-17.94744111674235L-32.042939940024226,-18.5L-32.042939940024226,-18.5L-53.08587988004845,-56.052558883257646L-84.45894683899488,-85.71281292110203L-120.76983597145022,-92.82050807568876L-99.6717597600969,-123.363448015713L-153.1070045455344,-128.81088913245534L-118.58072510390559,-166.61215932167727L-166.953792062852,-166.82754963085074L-139.6236650439298,-204.16471820493493L-184.26468119530736,-206.84421012924616L-154.10442715746296,-239.083302491977L-222.00377355803823,-227.47818472546172L-177.00377355803823,-305.42047106606117L-176,-306Z" stroke="#000" fill="#000" transform="translate(320,320)" /></svg>