<?xml version="1.0" standalone="yes"?><!DOCTYPE svg PUBLIC "-//W3C//DTD SVG 1.1//EN" "http://www.w3.org/Graphics/SVG/1.1/DTD/svg11.dtd"><svg width="640px" height="640px" xmlns="http://www.w3.org/2000/svg" version="1.1"><path d="M-116,-202 L-127,-252L-67,-296L-55,-131L-19,-84L-49,-270L-7,-246L0,-183L0,-183L7,-246L49,-270L19,-84L55,-131L67,-296L127,-252L116,-202L116.93713156445658,-201.4589468389949L154.7384017536785,-235.98522628062375L222.8435195201938,-206.02370205355743L85.94932789576146,-113.13139720814414L63.24613391789285,-58.454482671904344L209.3268590217984,-177.43524478543753L209.54224933097188,-129.0621778264911L158.48264889255228,-91.50000000000001L158.48264889255228,-91.50000000000001L216.54224933097188,-116.93782217350896L258.32685902179844,-92.56475521456254L82.24613391789285,-25.545517328095674L140.94932789576146,-17.868602791855892L289.8435195201938,-89.97629794644264L281.73840175367854,-16.014773719376322L232.9371315644566,-0.5410531610051521L232.93713156445662,0.5410531610050526L281.73840175367854,16.01477371937621L289.84351952019387,89.97629794644254L140.94932789576148,17.868602791855835L82.24613391789286,25.54551732809564L258.32685902179844,92.56475521456244L216.54224933097194,116.93782217350888L158.4826488925523,91.49999999999996L158.4826488925523,91.49999999999996L209.54224933097194,129.06217782649102L209.32685902179847,177.43524478543745L63.24613391789286,58.454482671904316L85.9493278957615,113.13139720814411L222.84351952019387,206.02370205355734L154.7384017536786,235.9852262806237L116.93713156445668,201.45894683899485L116.00000000000003,202L127.00000000000003,251.99999999999997L67.00000000000004,296L55.000000000000014,131L19.00000000000001,84L49.000000000000036,270L7.00000000000003,246L2.2411036424396564e-14,183L2.2411036424396564e-14,183L-6.99999999999997,246L-48.999999999999964,270L-18.99999999999999,84L-54.999999999999986,131L-66.99999999999996,296L-126.99999999999997,252.00000000000003L-115.99999999999997,202L-116.93713156445651,201.45894683899493L-154.7384017536784,235.9852262806238L-222.84351952019372,206.0237020535575L-85.9493278957614,113.13139720814416L-63.24613391789281,58.454482671904366L-209.32685902179833,177.4352447854376L-209.54224933097183,129.0621778264912L-158.48264889255222,91.50000000000009L-158.48264889255222,91.50000000000009L-216.54224933097183,116.93782217350905L-258.3268590217984,92.56475521456264L-82.24613391789283,25.545517328095706L-140.94932789576146,17.86860279185595L-289.8435195201938,89.97629794644277L-281.73840175367854,16.014773719376436L-232.93713156445662,0.5410531610052374L-232.9371315644566,-0.5410531610051237L-281.73840175367854,-16.014773719376294L-289.8435195201938,-89.97629794644261L-140.94932789576146,-17.868602791855878L-82.24613391789285,-25.545517328095666L-258.32685902179844,-92.56475521456251L-216.54224933097188,-116.93782217350893L-158.48264889255228,-91.5L-158.48264889255228,-91.5L-209.54224933097188,-129.06217782649108L-209.3268590217984,-177.43524478543748L-63.24613391789285,-58.45448267190433L-85.94932789576146,-113.13139720814412L-222.8435195201938,-206.02370205355737L-154.73840175367852,-235.9852262806237L-116.93713156445659,-201.45894683899488L-116,-202Z" stroke="#000" fill="#000" transform="translate(320,320)" /></svg>