<?xml version="1.0" standalone="yes"?><!DOCTYPE svg PUBLIC "-//W3C//DTD SVG 1.1//EN" "http://www.w3.org/Graphics/SVG/1.1/DTD/svg11.dtd"><svg width="640px" height="640px" xmlns="http://www.w3.org/2000/svg" version="1.1"><path d="M-152,-264 L-136,-160L-98,-115L-5,-1L-12,-42L6,-20L54,-224L0,-288L0,-288L-54,-224L-6,-20L12,-42L5,-1L98,-115L136,-160L152,-264L152.63070659909175,-263.6358613752347L70.56406460551015,-197.77945491468367L50.59292143521043,-142.370489570875L-1.6339745962155618,-4.830127018922193L30.373066958946424,-31.392304845413268L20.32050807568877,-4.80384757729337L220.98969044771425,-65.23462819564034L249.4153162899183,-144.00000000000003L249.4153162899183,-144.00000000000003L166.98969044771425,-158.76537180435972L14.320508075688771,-15.196152422706634L42.373066958946424,-10.60769515458674L3.3660254037844393,3.8301270189221928L148.59292143521046,27.370489570874966L206.56406460551017,37.77945491468364L304.6307065990918,-0.36413862476535996L304.6307065990918,0.3641386247652463L206.5640646055102,-37.77945491468371L148.59292143521046,-27.370489570875037L3.366025403784438,-3.8301270189221945L42.37306695894643,10.607695154586724L14.32050807568878,15.196152422706628L166.98969044771428,158.76537180435963L249.4153162899184,143.99999999999994L249.4153162899184,143.99999999999994L220.98969044771428,65.23462819564025L20.320508075688778,4.8038475772933635L30.373066958946435,31.392304845413257L-1.6339745962155603,4.8301270189221945L50.59292143521049,142.37048957087498L70.56406460551025,197.77945491468364L152.63070659909187,263.63586137523464L152.00000000000003,264L136.00000000000003,159.99999999999997L98.00000000000001,114.99999999999999L5,0.9999999999999993L12.000000000000005,42L-5.999999999999997,20L-53.99999999999997,224L3.5269827815443773e-14,288L3.5269827815443773e-14,288L54.00000000000003,224L6.000000000000003,20L-11.999999999999995,42L-5,1.0000000000000007L-97.99999999999999,115.00000000000001L-135.99999999999997,160.00000000000003L-151.99999999999997,264L-152.63070659909164,263.63586137523475L-70.56406460551008,197.7794549146837L-50.59292143521037,142.370489570875L1.6339745962155638,4.830127018922193L-30.373066958946403,31.39230484541328L-20.32050807568877,4.803847577293379L-220.98969044771422,65.23462819564043L-249.41531628991825,144.0000000000001L-249.41531628991825,144.0000000000001L-166.98969044771417,158.76537180435977L-14.320508075688764,15.19615242270664L-42.37306695894642,10.607695154586757L-3.3660254037844406,-3.8301270189221914L-148.59292143521046,-27.370489570874916L-206.5640646055102,-37.77945491468354L-304.6307065990918,0.36413862476547365L-304.6307065990918,-0.36413862476533154L-206.56406460551017,37.779454914683654L-148.59292143521043,27.37048957087498L-3.3660254037844384,3.8301270189221928L-42.373066958946424,-10.607695154586736L-14.320508075688771,-15.196152422706632L-166.98969044771425,-158.7653718043597L-249.4153162899183,-144L-249.4153162899183,-144L-220.98969044771425,-65.23462819564031L-20.32050807568877,-4.803847577293368L-30.373066958946424,-31.392304845413264L1.6339745962155614,-4.830127018922193L-50.59292143521044,-142.37048957087498L-70.56406460551017,-197.77945491468364L-152.63070659909178,-263.63586137523464L-152,-264Z" stroke="#000" fill="#000" transform="translate(320,320)" /></svg>