<?xml version="1.0" standalone="yes"?><!DOCTYPE svg PUBLIC "-//W3C//DTD SVG 1.1//EN" "http://www.w3.org/Graphics/SVG/1.1/DTD/svg11.dtd"><svg width="640px" height="640px" xmlns="http://www.w3.org/2000/svg" version="1.1"><path d="M-38,-67 L-27,-95L-86,-168L-120,-267L-50,-203L0,-273L0,-273L50,-203L120,-267L86,-168L27,-95L38,-67L39.023702053557386,-66.40896534380867L68.77241335952166,-70.88268590217984L102.4922678357857,-158.47818472546174L171.22878281044507,-237.42304845413264L150.80315696824104,-144.80127018922195L236.42493523315173,-136.50000000000003L236.42493523315173,-136.50000000000003L200.80315696824104,-58.1987298107781L291.2287828104451,-29.576951545867402L188.4922678357857,-9.521815274538298L95.77241335952166,-24.117314097820167L77.02370205355739,-0.59103465619134L77.0237020535574,0.5910346561913116L95.77241335952169,24.11731409782013L188.4922678357857,9.521815274538213L291.2287828104451,29.57695154586729L200.80315696824107,58.19872981077802L236.42493523315179,136.49999999999994L236.42493523315179,136.49999999999994L150.80315696824107,144.8012701892219L171.22878281044518,237.42304845413258L102.49226783578575,158.4781847254617L68.77241335952169,70.88268590217983L39.02370205355741,66.40896534380866L38.00000000000001,67L27.00000000000001,95L86.00000000000001,168L120.00000000000003,267L50.00000000000002,203L3.343285761672274e-14,273L3.343285761672274e-14,273L-49.99999999999998,203L-119.99999999999997,267L-85.99999999999999,168L-26.99999999999999,95L-37.99999999999999,67L-39.02370205355736,66.40896534380869L-68.77241335952164,70.88268590217987L-102.49226783578561,158.47818472546177L-171.22878281044498,237.42304845413273L-150.80315696824096,144.801270189222L-236.42493523315167,136.5000000000001L-236.42493523315167,136.5000000000001L-200.803156968241,58.19872981077817L-291.22878281044507,29.5769515458675L-188.49226783578567,9.521815274538369L-95.77241335952166,24.117314097820206L-77.02370205355739,0.5910346561913684L-77.02370205355739,-0.5910346561913329L-95.77241335952166,-24.11731409782016L-188.4922678357857,-9.521815274538284L-291.22878281044507,-29.576951545867374L-200.80315696824104,-58.19872981077807L-236.42493523315173,-136.5L-236.42493523315173,-136.5L-150.80315696824104,-144.80127018922192L-171.2287828104451,-237.42304845413264L-102.4922678357857,-158.47818472546172L-68.77241335952166,-70.88268590217984L-39.023702053557386,-66.40896534380866L-38,-67Z" stroke="#000" fill="#000" transform="translate(320,320)" /></svg>