<?xml version="1.0" standalone="yes"?><!DOCTYPE svg PUBLIC "-//W3C//DTD SVG 1.1//EN" "http://www.w3.org/Graphics/SVG/1.1/DTD/svg11.dtd"><svg width="640px" height="640px" xmlns="http://www.w3.org/2000/svg" version="1.1"><path d="M-140,-243 L-82,-285L-112,-217L-91,-230L-98,-193L-78,-206L-87,-178L-66,-193L-73,-154L-45,-174L-53,-131L-23,-154L-22,-92L-6,-156L-79,-217L-16,-215L0,-288L0,-288L16,-215L79,-217L6,-156L22,-92L23,-154L53,-131L45,-174L73,-154L66,-193L87,-178L78,-206L98,-193L91,-230L112,-217L82,-285L140,-243L140.44417311961854,-242.74355652982143L205.817240078565,-213.514083110324L131.92751262122317,-205.49484522385717L153.68584287042088,-193.80831174438396L118.14290293039663,-181.370489570875L139.40123317959436,-170.54998149518624L110.65252187363006,-164.34421012924616L134.14290293039664,-153.65767664977298L96.86791218280354,-140.21985447626403L128.18842025849233,-125.97114317029975L86.94932789576146,-111.39934640057527L121.86791218280354,-96.91858428704211L68.67433714816835,-65.05255888325766L132.09996299037243,-83.19615242270665L148.42751262122317,-176.9160068989707L178.1954618136543,-121.35640646055104L249.4153162899183,-144.00000000000003L249.4153162899183,-144.00000000000003L194.1954618136543,-93.64359353944901L227.42751262122317,-40.08399310102938L138.09996299037243,-72.80384757729338L90.67433714816835,-26.947441116742358L144.86791218280354,-57.08141571295793L139.94932789576146,-19.600653599424767L173.18842025849233,-48.028856829700274L169.86791218280354,-13.780145523735996L200.14290293039664,-39.34232335022708L197.65252187363006,-13.65578987075385L217.40123317959436,-35.45001850481381L216.14290293039664,-11.629510429125048L244.68584287042088,-36.191688255616114L243.92751262122317,-11.505154776142902L287.817240078565,-71.48591688967606L280.4441731196186,-0.256443470178624L280.4441731196186,0.2564434701785103L287.817240078565,71.48591688967596L243.9275126212232,11.505154776142817L244.6858428704209,36.191688255616015L216.14290293039667,11.629510429124949L217.40123317959439,35.45001850481373L197.6525218736301,13.655789870753779L200.1429029303967,39.342323350227L169.86791218280354,13.78014552373594L173.18842025849236,48.02885682970021L139.94932789576148,19.600653599424717L144.86791218280356,57.08141571295788L90.67433714816838,26.947441116742326L138.09996299037246,72.80384757729334L227.42751262122323,40.08399310102929L194.19546181365433,93.64359353944894L249.4153162899184,143.99999999999994L249.4153162899184,143.99999999999994L178.19546181365433,121.35640646055097L148.42751262122323,176.91600689897064L132.09996299037246,83.1961524227066L68.67433714816838,65.05255888325763L121.86791218280356,96.91858428704207L86.9493278957615,111.39934640057523L128.18842025849236,125.97114317029971L96.86791218280358,140.219854476264L134.1429029303967,153.65767664977292L110.65252187363015,164.34421012924614L139.40123317959439,170.5499814951862L118.14290293039673,181.37048957087495L153.68584287042097,193.80831174438387L131.92751262122326,205.4948452238571L205.81724007856508,213.51408311032392L140.44417311961865,242.74355652982138L140.00000000000003,242.99999999999997L82.00000000000003,285L112.00000000000003,217L91.00000000000003,230L98.00000000000003,193L78.00000000000003,206L87.00000000000003,178L66.00000000000003,193L73.00000000000001,154L45.00000000000002,174L53.000000000000014,131L23.000000000000018,154L22.00000000000001,92L6.0000000000000195,156L79.00000000000003,217L16.000000000000025,215L3.5269827815443773e-14,288L3.5269827815443773e-14,288L-15.999999999999973,215L-78.99999999999997,217L-5.9999999999999805,156L-21.99999999999999,92L-22.999999999999982,154L-52.999999999999986,131L-44.99999999999998,174L-72.99999999999999,154L-65.99999999999997,193L-86.99999999999997,178L-77.99999999999997,206L-97.99999999999997,193L-90.99999999999997,230L-111.99999999999997,217L-81.99999999999997,285L-139.99999999999997,243.00000000000003L-140.44417311961845,242.7435565298215L-205.8172400785649,213.51408311032407L-131.92751262122306,205.4948452238572L-153.6858428704208,193.80831174438399L-118.14290293039657,181.37048957087507L-139.40123317959427,170.54998149518627L-110.65252187363001,164.34421012924622L-134.1429029303966,153.657676649773L-96.86791218280348,140.21985447626406L-128.18842025849224,125.9711431702998L-86.9493278957614,111.3993464005753L-121.8679121828035,96.91858428704215L-68.67433714816832,65.05255888325769L-132.09996299037238,83.1961524227067L-148.4275126212231,176.91600689897075L-178.19546181365425,121.35640646055111L-249.41531628991825,144.0000000000001L-249.41531628991825,144.0000000000001L-194.19546181365425,93.64359353944909L-227.42751262122314,40.08399310102946L-138.09996299037238,72.80384757729344L-90.67433714816835,26.947441116742397L-144.8679121828035,57.08141571295799L-139.94932789576146,19.600653599424824L-173.1884202584923,48.028856829700345L-169.86791218280354,13.780145523736067L-200.14290293039664,39.342323350227154L-197.65252187363006,13.65578987075395L-217.40123317959433,35.4500185048139L-216.14290293039664,11.62951042912512L-244.68584287042086,36.191688255616214L-243.92751262122317,11.505154776143002L-287.81724007856496,71.48591688967616L-280.44417311961854,0.2564434701787377L-280.44417311961854,-0.2564434701785956L-287.81724007856496,-71.48591688967603L-243.92751262122317,-11.505154776142874L-244.68584287042088,-36.191688255616086L-216.14290293039664,-11.62951042912502L-217.40123317959436,-35.450018504813784L-197.65252187363006,-13.655789870753836L-200.14290293039664,-39.342323350227055L-169.86791218280354,-13.780145523735982L-173.18842025849233,-48.02885682970026L-139.94932789576146,-19.600653599424753L-144.86791218280354,-57.08141571295791L-90.67433714816835,-26.94744111674235L-138.09996299037243,-72.80384757729337L-227.42751262122317,-40.08399310102935L-194.1954618136543,-93.64359353944899L-249.4153162899183,-144L-249.4153162899183,-144L-178.1954618136543,-121.35640646055101L-148.42751262122317,-176.91600689897064L-132.09996299037243,-83.19615242270663L-68.67433714816835,-65.05255888325765L-121.86791218280354,-96.91858428704208L-86.94932789576146,-111.39934640057524L-128.18842025849233,-125.97114317029974L-96.86791218280354,-140.219854476264L-134.14290293039664,-153.65767664977295L-110.65252187363006,-164.34421012924616L-139.40123317959436,-170.54998149518622L-118.14290293039664,-181.37048957087498L-153.68584287042088,-193.8083117443839L-131.92751262122317,-205.4948452238571L-205.817240078565,-213.51408311032395L-140.44417311961857,-242.7435565298214L-140,-243Z" stroke="#000" fill="#000" transform="translate(320,320)" /></svg>