<?xml version="1.0" standalone="yes"?><!DOCTYPE svg PUBLIC "-//W3C//DTD SVG 1.1//EN" "http://www.w3.org/Graphics/SVG/1.1/DTD/svg11.dtd"><svg width="640px" height="640px" xmlns="http://www.w3.org/2000/svg" version="1.1"><path d="M-92,-160 L-19,-68L-12,-94L-21,-143L-40,-166L-29,-185L-88,-187L-110,-227L-29,-212L-85,-261L0,-288L0,-288L85,-261L29,-212L110,-227L88,-187L29,-185L40,-166L21,-143L12,-94L19,-68L92,-160L92.56406460551017,-159.67433714816838L49.38972745734183,-50.454482671904344L75.40638795573723,-57.39230484541327L113.34163274117472,-89.68653347947323L123.7602170282168,-117.64101615137756L145.71469970012114,-117.61473670974874L117.94675050769001,-169.7102355330306L141.58776665906754,-208.76279441628827L169.097385602301,-131.11473670974874L183.53263038773846,-204.11215932167732L249.4153162899183,-144.00000000000003L249.4153162899183,-144.00000000000003L268.5326303877385,-56.887840678322746L198.097385602301,-80.88526329025132L251.5877666590676,-18.237205583711784L205.94675050769,-17.289764466969416L174.71469970012114,-67.38526329025129L163.7602170282168,-48.35898384862247L134.34163274117472,-53.3134665205268L87.40638795573723,-36.60769515458674L68.38972745734183,-17.545517328095674L184.56406460551017,-0.325662851831666L184.5640646055102,0.32566285183159493L68.38972745734183,17.54551732809565L87.40638795573724,36.607695154586715L134.34163274117475,53.31346652052676L163.76021702821686,48.3589838486224L174.71469970012117,67.38526329025123L205.94675050769004,17.289764466969345L251.5877666590676,18.23720558371167L198.09738560230102,80.88526329025123L268.5326303877385,56.88784067832265L249.4153162899184,143.99999999999994L249.4153162899184,143.99999999999994L183.53263038773855,204.11215932167724L169.09738560230102,131.11473670974868L141.58776665906765,208.76279441628822L117.9467505076901,169.71023553303058L145.71469970012117,117.61473670974868L123.76021702821686,117.64101615137751L113.34163274117475,89.68653347947318L75.40638795573724,57.39230484541324L49.38972745734185,50.45448267190432L92.56406460551025,159.67433714816835L92.00000000000001,160L19.000000000000007,68L12.00000000000001,94L21.000000000000018,143L40.00000000000002,166L29.00000000000002,185L88.00000000000003,187L110.00000000000003,227L29.000000000000025,212L85.00000000000003,261L3.5269827815443773e-14,288L3.5269827815443773e-14,288L-84.99999999999997,261L-28.999999999999975,212L-109.99999999999997,227L-87.99999999999997,187L-28.99999999999998,185L-39.99999999999998,166L-20.999999999999982,143L-11.99999999999999,94L-18.999999999999993,68L-91.99999999999999,160L-92.5640646055101,159.6743371481684L-49.3897274573418,50.45448267190436L-75.4063879557372,57.39230484541331L-113.34163274117468,89.68653347947327L-123.76021702821676,117.64101615137761L-145.7146997001211,117.6147367097488L-117.94675050768994,169.71023553303067L-141.58776665906746,208.76279441628833L-169.09738560230093,131.1147367097488L-183.53263038773838,204.11215932167738L-249.41531628991825,144.0000000000001L-249.41531628991825,144.0000000000001L-268.53263038773844,56.887840678322846L-198.09738560230093,80.88526329025139L-251.58776665906757,18.237205583711884L-205.94675050769,17.2897644669695L-174.7146997001211,67.38526329025137L-163.7602170282168,48.358983848622536L-134.3416327411747,53.31346652052685L-87.4063879557372,36.60769515458678L-68.38972745734182,17.5455173280957L-184.56406460551017,0.32566285183173704L-184.56406460551017,-0.3256628518316518L-68.38972745734182,-17.545517328095666L-87.40638795573723,-36.607695154586736L-134.34163274117472,-53.31346652052679L-163.7602170282168,-48.35898384862246L-174.71469970012114,-67.38526329025129L-205.94675050769,-17.2897644669694L-251.58776665906757,-18.237205583711756L-198.097385602301,-80.88526329025129L-268.53263038773844,-56.88784067832272L-249.4153162899183,-144L-249.4153162899183,-144L-183.53263038773846,-204.11215932167727L-169.097385602301,-131.1147367097487L-141.58776665906757,-208.76279441628824L-117.94675050769001,-169.71023553303058L-145.71469970012114,-117.61473670974871L-123.7602170282168,-117.64101615137754L-113.34163274117472,-89.68653347947321L-75.40638795573723,-57.392304845413264L-49.38972745734183,-50.45448267190433L-92.56406460551017,-159.67433714816835L-92,-160Z" stroke="#000" fill="#000" transform="translate(320,320)" /></svg>